<svg xmlns="http://www.w3.org/2000/svg" xmlns:xlink="http://www.w3.org/1999/xlink" width="1920" height="1313" viewBox="0 0 1920 1313"><defs><style>.a{clip-path:url(#as);}.b{fill:url(#a);}.c{fill:url(#b);}.d{fill:url(#c);}.e{fill:url(#d);}.f{font-size:31px;}.af,.f,.o,.p,.t,.u,.x{font-family:SegoeUI-Bold, Segoe UI;font-weight:700;}.g{fill:url(#e);}.h{fill:url(#f);}.aj,.i{fill:none;}.i{stroke:#2383c5;stroke-width:2px;}.j,.k{font-size:25px;}.ae,.j,.k,.r{font-family:SegoeUI, Segoe UI;}.k{fill:#8f8f8f;}.l{fill:url(#g);}.ac,.m,.o,.v{fill:#fff;}.ag,.ah,.n{fill:#707070;}.n,.v{stroke:#707070;}.o,.p,.x{font-size:15px;}.q{fill:url(#l);}.r{font-weight:400;}.s{fill:url(#o);}.af,.t{font-size:30px;}.ae,.u{font-size:20px;}.ae,.af,.w{fill:#2383c5;}.x,.z{fill:#fc0303;}.y{fill:#000;}.aa{fill:url(#ah);}.ab{fill:red;}.ac{stroke:#adaeae;stroke-width:0.5px;}.ad{fill:url(#ak);}.ae{text-decoration:underline;}.ai,.ak{stroke:none;}.ak{fill:#707070;}.al{filter:url(#ap);}.am{filter:url(#an);}.an{filter:url(#al);}.ao{filter:url(#ai);}.ap{filter:url(#af);}.aq{filter:url(#ac);}.ar{filter:url(#z);}.as{filter:url(#x);}.at{filter:url(#u);}.au{filter:url(#r);}.av{filter:url(#p);}.aw{filter:url(#m);}.ax{filter:url(#j);}.ay{filter:url(#h);}</style><pattern id="a" preserveAspectRatio="none" width="100%" height="100%" viewBox="0 0 300 72"><image width="300" height="72" xlink:href="../../Downloads/Graphics/DU%20blue%20logo-01%20small.png"/></pattern><pattern id="b" preserveAspectRatio="none" width="100%" height="100%" viewBox="0 0 296 246"><image width="296" height="246" xlink:href="../../Downloads/Graphics/JKO_black%20logo.png"/></pattern><pattern id="c" preserveAspectRatio="none" width="100%" height="100%" viewBox="0 0 149 46"><image width="149" height="46" xlink:href="../../Downloads/Graphics/dau%20black.png"/></pattern><pattern id="d" preserveAspectRatio="none" width="100%" height="100%" viewBox="0 0 300 207"><image width="300" height="207" xlink:href="../../Downloads/Graphics/Logo2%20small.png"/></pattern><pattern id="e" preserveAspectRatio="none" width="100%" height="100%" viewBox="0 0 300 91"><image width="300" height="91" xlink:href="../../Downloads/Graphics/myTrainng%20blue%20logo-01_small.png"/></pattern><pattern id="f" preserveAspectRatio="none" width="100%" height="100%" viewBox="0 0 1158 339"><image width="1158" height="339" xlink:href="../../Downloads/Graphics/MyLearning%20Blue%20logo-01.png"/></pattern><pattern id="g" preserveAspectRatio="none" width="100%" height="100%" viewBox="0 0 24 24"><image width="24" height="24" xlink:href="01%20User%20dashboard-image3.png"/></pattern><filter id="h" x="959" y="588" width="554" height="473" filterUnits="userSpaceOnUse"><feOffset dy="3" input="SourceAlpha"/><feGaussianBlur stdDeviation="3" result="i"/><feFlood flood-opacity="0.302"/><feComposite operator="in" in2="i"/><feComposite in="SourceGraphic"/></filter><filter id="j" x="980" y="685" width="516" height="160" filterUnits="userSpaceOnUse"><feOffset dy="3" input="SourceAlpha"/><feGaussianBlur stdDeviation="3" result="k"/><feFlood flood-opacity="0.302"/><feComposite operator="in" in2="k"/><feComposite in="SourceGraphic"/></filter><pattern id="l" preserveAspectRatio="none" width="100%" height="100%" viewBox="0 0 747 773"><image width="747" height="773" xlink:href="../../Downloads/Graphics/DU%20blue%20logo-04.png"/></pattern><filter id="m" x="980" y="838" width="516" height="160" filterUnits="userSpaceOnUse"><feOffset dy="3" input="SourceAlpha"/><feGaussianBlur stdDeviation="3" result="n"/><feFlood flood-opacity="0.302"/><feComposite operator="in" in2="n"/><feComposite in="SourceGraphic"/></filter><pattern id="o" preserveAspectRatio="none" width="100%" height="100%" viewBox="0 0 319 319"><image width="319" height="319" xlink:href="../../Downloads/Graphics/MyLearning%20Blue%20logo-06.png"/></pattern><filter id="p" x="545" y="588" width="416" height="473" filterUnits="userSpaceOnUse"><feOffset dy="3" input="SourceAlpha"/><feGaussianBlur stdDeviation="3" result="q"/><feFlood flood-opacity="0.302"/><feComposite operator="in" in2="q"/><feComposite in="SourceGraphic"/></filter><filter id="r" x="566" y="685" width="382" height="160" filterUnits="userSpaceOnUse"><feOffset dy="3" input="SourceAlpha"/><feGaussianBlur stdDeviation="3" result="s"/><feFlood flood-opacity="0.302"/><feComposite operator="in" in2="s"/><feComposite in="SourceGraphic"/></filter><filter id="u" x="566" y="841" width="382" height="160" filterUnits="userSpaceOnUse"><feOffset dy="3" input="SourceAlpha"/><feGaussianBlur stdDeviation="3" result="v"/><feFlood flood-opacity="0.302"/><feComposite operator="in" in2="v"/><feComposite in="SourceGraphic"/></filter><filter id="x" x="131" y="588" width="416" height="473" filterUnits="userSpaceOnUse"><feOffset dy="3" input="SourceAlpha"/><feGaussianBlur stdDeviation="3" result="y"/><feFlood flood-opacity="0.302"/><feComposite operator="in" in2="y"/><feComposite in="SourceGraphic"/></filter><filter id="z" x="152" y="838" width="382" height="160" filterUnits="userSpaceOnUse"><feOffset dy="3" input="SourceAlpha"/><feGaussianBlur stdDeviation="3" result="aa"/><feFlood flood-opacity="0.302"/><feComposite operator="in" in2="aa"/><feComposite in="SourceGraphic"/></filter><filter id="ac" x="152" y="685" width="382" height="160" filterUnits="userSpaceOnUse"><feOffset dy="3" input="SourceAlpha"/><feGaussianBlur stdDeviation="3" result="ad"/><feFlood flood-opacity="0.302"/><feComposite operator="in" in2="ad"/><feComposite in="SourceGraphic"/></filter><filter id="af" x="-9" y="-6" width="1938" height="216" filterUnits="userSpaceOnUse"><feOffset dy="3" input="SourceAlpha"/><feGaussianBlur stdDeviation="3" result="ag"/><feFlood flood-opacity="0.161"/><feComposite operator="in" in2="ag"/><feComposite in="SourceGraphic"/></filter><pattern id="ah" preserveAspectRatio="none" width="100%" height="100%" viewBox="0 0 2128 622"><image width="2128" height="622" xlink:href="../A3G%20Desing%20projects/DAF%20Lerning%20logo%20Stack%20v%2002/DAF%20003_Clean%20Stack%20V01%20clean-01.png"/></pattern><filter id="ai" x="579" y="472" width="762" height="80" filterUnits="userSpaceOnUse"><feOffset dy="3" input="SourceAlpha"/><feGaussianBlur stdDeviation="3" result="aj"/><feFlood flood-opacity="0.302"/><feComposite operator="in" in2="aj"/><feComposite in="SourceGraphic"/></filter><pattern id="ak" preserveAspectRatio="none" width="100%" height="100%" viewBox="0 0 24 24"><image width="24" height="24" xlink:href="icons/search_FILL0_wght400_GRAD0_opsz24_Gray.png"/></pattern><filter id="al" x="858" y="99" width="204" height="204" filterUnits="userSpaceOnUse"><feOffset dy="3" input="SourceAlpha"/><feGaussianBlur stdDeviation="3" result="am"/><feFlood flood-opacity="0.161"/><feComposite operator="in" in2="am"/><feComposite in="SourceGraphic"/></filter><filter id="an" x="875.634" y="208" width="168.731" height="95" filterUnits="userSpaceOnUse"><feOffset dy="3" input="SourceAlpha"/><feGaussianBlur stdDeviation="3" result="ao"/><feFlood flood-opacity="0.161"/><feComposite operator="in" in2="ao"/><feComposite in="SourceGraphic"/></filter><filter id="ap" x="913" y="113" width="94" height="94" filterUnits="userSpaceOnUse"><feOffset dy="3" input="SourceAlpha"/><feGaussianBlur stdDeviation="3" result="aq"/><feFlood flood-opacity="0.161"/><feComposite operator="in" in2="aq"/><feComposite in="SourceGraphic"/></filter><clipPath id="as"><rect width="1920" height="1313"/></clipPath><image id="at" width="24" height="24" xlink:href="01%20User%20dashboard-image2.png"/><image id="au" width="24" height="24" xlink:href="01%20User%20dashboard-image7.png"/></defs><g id="ar" class="a"><rect class="m" width="1920" height="1313"/><rect class="b" width="277" height="66" transform="translate(827 1192)"/><rect class="c" width="106" height="88" transform="translate(1165 1181)"/><rect class="d" width="172" height="53" transform="translate(1333 1199)"/><rect class="e" width="133" height="92" transform="translate(1566 1179)"/><text class="f" transform="translate(244 1141)"><tspan x="0" y="0">Invest In Your Future</tspan></text><rect class="g" width="226" height="68" transform="translate(539 1191)"/><rect class="h" width="234" height="68" transform="translate(244 1191)"/><line class="i" x2="1640" transform="translate(140.5 1079.5)"/><g transform="translate(0 0)"><text class="j" transform="translate(1560 1043)"><tspan x="0" y="0">Help Desk</tspan></text><image width="24" height="24" transform="translate(1520 1020)" xlink:href="01%20User%20dashboard-image.png"/></g><g transform="translate(0 -5)"><text class="k" transform="translate(1560 978)"><tspan x="0" y="0">Reports</tspan></text><use transform="translate(1522 958)" xlink:href="#at"/></g><g transform="translate(0 -3)"><text class="j" transform="translate(1560 905)"><tspan x="0" y="0">Transcripts</tspan></text><use transform="translate(1520 883)" xlink:href="#at"/></g><g transform="translate(0 -5)"><text class="j" transform="translate(1560 837)"><tspan x="0" y="0">Competencies</tspan></text><rect class="l" width="24" height="24" rx="12" transform="translate(1520 815)"/></g><g transform="translate(0 -3)"><text class="j" transform="translate(1560 765)"><tspan x="0" y="0">Saved Courses</tspan></text><image width="24" height="24" transform="translate(1520 743)" xlink:href="01%20User%20dashboard-image4.png"/></g><g transform="translate(0 -2)"><text class="j" transform="translate(1560 693)"><tspan x="0" y="0">Completed Courses</tspan></text><image width="24" height="24" transform="translate(1520 671)" xlink:href="01%20User%20dashboard-image5.png"/></g><text class="j" transform="translate(1560 621)"><tspan x="0" y="0">Course Library</tspan></text><image width="24" height="24" transform="translate(1520 599)" xlink:href="01%20User%20dashboard-image6.png"/><g transform="translate(414)"><g class="ay" transform="matrix(1, 0, 0, 1, -414, 0)"><rect class="m" width="536" height="455" rx="25" transform="translate(968 594)"/></g><g class="ax" transform="matrix(1, 0, 0, 1, -414, 0)"><rect class="m" width="498" height="142" rx="17" transform="translate(989 691)"/></g><g class="n" transform="translate(597 716)"><rect class="ai" width="122" height="92" rx="17"/><rect class="aj" x="0.5" y="0.5" width="121" height="91" rx="16.5"/></g><text class="o" transform="translate(658 768)"><tspan x="-48.241" y="0">Course Image</tspan></text><text class="p" transform="translate(737 740)"><tspan x="0" y="0">Learning Path Name</tspan></text><ellipse class="m" cx="13" cy="12" rx="13" ry="12" transform="translate(686 722)"/><rect class="q" width="17" height="18" transform="translate(690 725)"/><text class="p" transform="translate(737 778)"><tspan x="0" y="0" xml:space="preserve">Total Courses:  </tspan><tspan class="r" y="0">8</tspan><tspan x="0" y="20">Completed Courses: </tspan><tspan class="r" y="20">0 out of 8</tspan></text><g transform="translate(0 153)"><g class="aw" transform="matrix(1, 0, 0, 1, -414, -153)"><rect class="m" width="498" height="142" rx="17" transform="translate(989 844)"/></g><g class="n" transform="translate(597 716)"><rect class="ai" width="122" height="92" rx="17"/><rect class="aj" x="0.5" y="0.5" width="121" height="91" rx="16.5"/></g><text class="o" transform="translate(658 768)"><tspan x="-48.241" y="0">Course Image</tspan></text><text class="p" transform="translate(737 740)"><tspan x="0" y="0">Learning Path Name</tspan></text><ellipse class="m" cx="13" cy="12" rx="13" ry="12" transform="translate(686 722)"/><path class="s" d="M0,0H20a0,0,0,0,1,0,0V4A16,16,0,0,1,4,20H0a0,0,0,0,1,0,0V0A0,0,0,0,1,0,0Z" transform="translate(689 724)"/><text class="p" transform="translate(737 778)"><tspan x="0" y="0" xml:space="preserve">Total Courses:  </tspan><tspan class="r" y="0">5</tspan><tspan x="0" y="20">Completed Courses: </tspan><tspan class="r" y="20">2 out of 5</tspan></text></g><use transform="translate(834 657) rotate(90)" xlink:href="#au"/><use transform="translate(814 1022) rotate(-90)" xlink:href="#au"/><text class="t" transform="translate(575 637)"><tspan x="0" y="0">Learning Paths</tspan></text></g><g class="av" transform="matrix(1, 0, 0, 1, 0, 0)"><rect class="m" width="398" height="455" rx="25" transform="translate(554 594)"/></g><g class="au" transform="matrix(1, 0, 0, 1, 0, 0)"><rect class="m" width="364" height="142" rx="17" transform="translate(575 691)"/></g><g class="n" transform="translate(597 716)"><rect class="ai" width="122" height="92" rx="17"/><rect class="aj" x="0.5" y="0.5" width="121" height="91" rx="16.5"/></g><text class="o" transform="translate(658 768)"><tspan x="-48.241" y="0">Course Image</tspan></text><text class="p" transform="translate(737 740)"><tspan x="0" y="0">Course Name</tspan></text><ellipse class="m" cx="13" cy="12" rx="13" ry="12" transform="translate(686 722)"/><rect class="d" width="23" height="7" transform="translate(688 731)"/><text class="u" transform="translate(874 790)"><tspan x="0" y="0">56%</tspan></text><g class="v" transform="translate(737 775)"><rect class="ai" width="125" height="18" rx="9"/><rect class="aj" x="0.5" y="0.5" width="124" height="17" rx="8.5"/></g><rect class="w" width="81" height="18" rx="9" transform="translate(737 775)"/><g transform="translate(0 156)"><g class="at" transform="matrix(1, 0, 0, 1, 0, -156)"><rect class="m" width="364" height="142" rx="17" transform="translate(575 847)"/></g><g class="n" transform="translate(597 716)"><rect class="ai" width="122" height="92" rx="17"/><rect class="aj" x="0.5" y="0.5" width="121" height="91" rx="16.5"/></g><text class="o" transform="translate(658 768)"><tspan x="-48.241" y="0">Course Image</tspan></text><text class="p" transform="translate(737 740)"><tspan x="0" y="0">Course Name</tspan></text><ellipse class="m" cx="13" cy="12" rx="13" ry="12" transform="translate(686 722)"/><path class="s" d="M0,0H20a0,0,0,0,1,0,0V4A16,16,0,0,1,4,20H0a0,0,0,0,1,0,0V0A0,0,0,0,1,0,0Z" transform="translate(689 724)"/><text class="u" transform="translate(874 790)"><tspan x="0" y="0">84%</tspan></text><g class="v" transform="translate(737 775)"><rect class="ai" width="125" height="18" rx="9"/><rect class="aj" x="0.5" y="0.5" width="124" height="17" rx="8.5"/></g><rect class="w" width="111" height="18" rx="9" transform="translate(737 775)"/></g><text class="t" transform="translate(575 637)"><tspan x="0" y="0">In Progress</tspan></text><use transform="translate(765 656) rotate(90)" xlink:href="#au"/><use transform="translate(745 1021) rotate(-90)" xlink:href="#au"/><g class="as" transform="matrix(1, 0, 0, 1, 0, 0)"><rect class="m" width="398" height="455" rx="24" transform="translate(140 594)"/></g><g class="ar" transform="matrix(1, 0, 0, 1, 0, 0)"><rect class="m" width="364" height="142" rx="17" transform="translate(161 844)"/></g><g class="n" transform="translate(183 869)"><rect class="ai" width="122" height="92" rx="17"/><rect class="aj" x="0.5" y="0.5" width="121" height="91" rx="16.5"/></g><text class="o" transform="translate(244 921)"><tspan x="-48.241" y="0">Course Image</tspan></text><text class="p" transform="translate(323 893)"><tspan x="0" y="0">Course Name</tspan></text><text class="x" transform="translate(323 921)"><tspan class="y" x="0" y="0">Exp. Date: </tspan><tspan class="z" y="0">00/00/0000</tspan><tspan class="y" y="0" xml:space="preserve">   </tspan><tspan class="y" x="0" y="20">Days: </tspan><tspan class="z" y="20">60</tspan></text><ellipse class="m" cx="13" cy="12" rx="13" ry="12" transform="translate(272 875)"/><rect class="c" width="17" height="14" transform="translate(277 880)"/><g transform="translate(4 23)"><g class="aq" transform="matrix(1, 0, 0, 1, -4, -23)"><rect class="m" width="364" height="142" rx="17" transform="translate(161 691)"/></g><g class="n" transform="translate(179 693)"><rect class="ai" width="122" height="92" rx="17"/><rect class="aj" x="0.5" y="0.5" width="121" height="91" rx="16.5"/></g><text class="o" transform="translate(240 745)"><tspan x="-48.241" y="0">Course Image</tspan></text><text class="p" transform="translate(319 717)"><tspan x="0" y="0">Course Name</tspan></text><text class="x" transform="translate(319 745)"><tspan class="y" x="0" y="0">Exp. Date: </tspan><tspan class="z" y="0">00/00/0000</tspan><tspan class="y" y="0" xml:space="preserve">   </tspan><tspan class="y" x="0" y="20">Days: </tspan><tspan class="z" y="20">60</tspan></text><ellipse class="m" cx="13" cy="12" rx="13" ry="12" transform="translate(268 699)"/><path class="s" d="M0,0H20a0,0,0,0,1,0,0V4A16,16,0,0,1,4,20H0a0,0,0,0,1,0,0V0A0,0,0,0,1,0,0Z" transform="translate(271 701)"/></g><text class="t" transform="translate(161 637)"><tspan x="0" y="0">Expiring Courses</tspan></text><use transform="translate(351 656) rotate(90)" xlink:href="#au"/><use transform="translate(331 1021) rotate(-90)" xlink:href="#au"/><g class="ap" transform="matrix(1, 0, 0, 1, 0, 0)"><rect class="m" width="1920" height="198"/></g><path class="w" d="M-2112,375H-3563.316A279.739,279.739,0,0,0-3547,280.5,279.127,279.127,0,0,0-3566.712,177H-2112V375Z" transform="translate(4032 -177)"/><rect class="aa" width="276" height="81" transform="translate(140 59)"/><image width="24" height="24" transform="translate(1151 359)" xlink:href="01%20User%20dashboard-image8.png"/><circle class="ab" cx="4.5" cy="4.5" r="4.5" transform="translate(1165 359)"/><g transform="translate(385 420)"><g class="ao" transform="matrix(1, 0, 0, 1, -385, -420)"><g class="ac" transform="translate(588 478)"><rect class="ai" width="744" height="62" rx="31"/><rect class="aj" x="0.25" y="0.25" width="743.5" height="61.5" rx="30.75"/></g></g><rect class="ad" width="36" height="36" rx="12" transform="translate(218 72)"/></g><text class="ae" transform="translate(943 436)"><tspan x="0" y="0">edit</tspan></text><text class="j" transform="translate(829 394)"><tspan x="0" y="0">personsname@us.af.mil</tspan></text><text class="af" transform="translate(807 366)"><tspan x="0" y="0">Rank, First Middle Last</tspan></text><g class="an" transform="matrix(1, 0, 0, 1, 0, 0)"><circle class="m" cx="93" cy="93" r="93" transform="translate(867 105)"/></g><g class="am" transform="matrix(1, 0, 0, 1, 0, 0)"><g class="ag" transform="translate(4975 105)"><path class="ai" d="M -4015.000244140625 185.4997406005859 C -4022.565185546875 185.4997406005859 -4030.088134765625 184.5844879150391 -4037.360595703125 182.7794189453125 C -4044.423828125 181.0262298583984 -4051.281494140625 178.4272766113281 -4057.74267578125 175.0547180175781 C -4064.0908203125 171.7412567138672 -4070.063232421875 167.6784362792969 -4075.494384765625 162.9790802001953 C -4080.810546875 158.3791656494141 -4085.604248046875 153.1728973388672 -4089.74755859375 147.4999542236328 C -4085.604248046875 141.8269195556641 -4080.810546875 136.6205902099609 -4075.494384765625 132.0205993652344 C -4070.063232421875 127.3211517333984 -4064.0908203125 123.2582550048828 -4057.74267578125 119.9447555541992 C -4051.281494140625 116.572135925293 -4044.423828125 113.9731140136719 -4037.360595703125 112.2198944091797 C -4030.088134765625 110.4147720336914 -4022.565185546875 109.49951171875 -4015.000244140625 109.49951171875 C -4007.435302734375 109.49951171875 -3999.911865234375 110.4147720336914 -3992.639404296875 112.2198944091797 C -3985.576171875 113.9731140136719 -3978.718505859375 116.572135925293 -3972.257080078125 119.9447555541992 C -3965.9091796875 123.2582550048828 -3959.9365234375 127.3211517333984 -3954.50537109375 132.0205993652344 C -3949.189208984375 136.6205902099609 -3944.3955078125 141.8269195556641 -3940.25244140625 147.4999542236328 C -3944.3955078125 153.1729125976562 -3949.189208984375 158.3791656494141 -3954.50537109375 162.9790802001953 C -3959.9365234375 167.6784362792969 -3965.9091796875 171.7412719726562 -3972.257080078125 175.0546875 C -3978.718505859375 178.4272766113281 -3985.576171875 181.0262298583984 -3992.639404296875 182.7794189453125 C -3999.911865234375 184.5844879150391 -4007.435302734375 185.4997406005859 -4015.000244140625 185.4997406005859 Z"/><path class="ak" d="M -4015.000244140625 184.9997406005859 C -4007.475830078125 184.9997406005859 -3999.9931640625 184.0894317626953 -3992.760009765625 182.2941284179688 C -3985.735107421875 180.5504913330078 -3978.914794921875 177.9656677246094 -3972.488525390625 174.6114501953125 C -3966.1748046875 171.31591796875 -3960.234375 167.2750091552734 -3954.83251953125 162.6009521484375 C -3949.63720703125 158.1055908203125 -3944.943603515625 153.0279998779297 -3940.87255859375 147.4999542236328 C -3944.943603515625 141.9718017578125 -3949.63720703125 136.8941345214844 -3954.83251953125 132.3987121582031 C -3960.234375 127.7245712280273 -3966.1748046875 123.68359375 -3972.488525390625 120.3879928588867 C -3978.914794921875 117.0337142944336 -3985.735107421875 114.4488372802734 -3992.760009765625 112.7051773071289 C -3999.9931640625 110.9098358154297 -4007.475830078125 109.99951171875 -4015.000244140625 109.99951171875 C -4022.524658203125 109.99951171875 -4030.007080078125 110.9098358154297 -4037.239990234375 112.7051773071289 C -4044.264892578125 114.4488372802734 -4051.085205078125 117.0337142944336 -4057.511474609375 120.3879928588867 C -4063.8251953125 123.68359375 -4069.765380859375 127.7245712280273 -4075.167236328125 132.3987121582031 C -4080.362548828125 136.8941497802734 -4085.056396484375 141.9718322753906 -4089.12744140625 147.4999542236328 C -4085.056396484375 153.0280151367188 -4080.362548828125 158.1055908203125 -4075.167236328125 162.6009521484375 C -4069.765380859375 167.2749938964844 -4063.8251953125 171.31591796875 -4057.511474609375 174.6114501953125 C -4051.085205078125 177.9656677246094 -4044.264892578125 180.5504913330078 -4037.239990234375 182.2941284179688 C -4030.007080078125 184.0894317626953 -4022.524658203125 184.9997406005859 -4015.000244140625 184.9997406005859 M -4015.000244140625 185.9997406005859 C -4046.00732421875 185.9997406005859 -4073.46826171875 170.8282470703125 -4090.36572265625 147.4999542236328 C -4073.46826171875 124.1713333129883 -4046.00732421875 108.99951171875 -4015.000244140625 108.99951171875 C -3983.992431640625 108.99951171875 -3956.531494140625 124.1713333129883 -3939.63427734375 147.4999542236328 C -3956.531494140625 170.8282470703125 -3983.992431640625 185.9997406005859 -4015.000244140625 185.9997406005859 Z"/></g></g><g class="al" transform="matrix(1, 0, 0, 1, 0, 0)"><circle class="ah" cx="38" cy="38" r="38" transform="translate(922 119)"/></g></g></svg>